<svg width="74" height="29" viewBox="0 0 74 29" fill="none" xmlns="http://www.w3.org/2000/svg">
<g filter="url(#filter0_d_2_2)">
<path d="M9.232 20.736C8.64 20.736 8.12 20.688 7.672 20.592C7.224 20.496 6.832 20.264 6.496 19.896C6.176 19.528 6.016 18.96 6.016 18.192C6.016 17.12 6.336 15.68 6.976 13.872C7.632 12.064 8.488 10.248 9.544 8.424C8.744 8.472 8.112 8.592 7.648 8.784C7.184 8.976 6.88 9.272 6.736 9.672C6.8 9.672 6.864 9.752 6.928 9.912C7.008 10.072 7.048 10.24 7.048 10.416C7.048 10.704 6.92 10.936 6.664 11.112C6.408 11.272 6.088 11.352 5.704 11.352C5.256 11.352 4.896 11.232 4.624 10.992C4.352 10.752 4.216 10.408 4.216 9.96C4.216 9.416 4.424 8.92 4.84 8.472C5.272 8.024 5.864 7.672 6.616 7.416C7.368 7.144 8.2 7.008 9.112 7.008C9.448 7.008 9.864 7.032 10.36 7.08C11.672 5 13.056 3.304 14.512 1.992C15.984 0.663999 17.384 -1.43051e-06 18.712 -1.43051e-06C19.48 -1.43051e-06 20.112 0.111999 20.608 0.335999L16.84 18H13.384L15.232 9.288C14.64 9.016 14.096 8.816 13.6 8.688C13.104 8.56 12.576 8.472 12.016 8.424C11.104 10.392 10.352 12.408 9.76 14.472C9.184 16.52 8.896 18.16 8.896 19.392C8.896 20 9.008 20.448 9.232 20.736ZM16.84 1.704C16.152 2.072 15.432 2.76 14.68 3.768C13.944 4.76 13.224 5.968 12.52 7.392C13.672 7.616 14.648 7.896 15.448 8.232L16.84 1.704ZM23.2233 18.144C22.1353 18.144 21.3033 17.88 20.7273 17.352C20.1513 16.808 19.8632 16.048 19.8632 15.072C19.8632 14.592 19.9192 14.136 20.0312 13.704L22.5993 1.68L26.1513 1.2L24.9993 6.6C25.4473 6.328 25.8153 6.152 26.1033 6.072C26.3913 5.976 26.6793 5.928 26.9673 5.928C28.8553 5.928 29.7993 7.296 29.7993 10.032C29.7993 11.136 29.5833 12.32 29.1513 13.584C28.7353 14.832 28.0313 15.904 27.0393 16.8C26.0633 17.696 24.7913 18.144 23.2233 18.144ZM24.5673 15.816C25.0633 15.816 25.5273 15.512 25.9593 14.904C26.3913 14.28 26.7353 13.512 26.9913 12.6C27.2473 11.672 27.3753 10.784 27.3753 9.936C27.3753 9.296 27.2633 8.752 27.0393 8.304C26.8153 7.856 26.5033 7.632 26.1033 7.632C25.8633 7.632 25.5913 7.672 25.2873 7.752C24.9993 7.816 24.7993 7.92 24.6873 8.064L23.3673 14.16C23.3193 14.352 23.2953 14.536 23.2953 14.712C23.2953 15.448 23.7193 15.816 24.5673 15.816ZM33.0713 18.144C32.3033 18.144 31.6793 17.904 31.1993 17.424C30.7353 16.944 30.5033 16.224 30.5033 15.264C30.5033 14.864 30.5673 14.344 30.6953 13.704L32.3273 6H35.7833L34.0553 14.16C34.0073 14.4 33.9833 14.624 33.9833 14.832C33.9833 15.488 34.2233 15.816 34.7033 15.816C35.1513 15.816 35.5353 15.632 35.8553 15.264C36.1753 14.88 36.4313 14.36 36.6233 13.704L38.2553 6H41.7113L39.9833 14.16C39.9193 14.4 39.8873 14.656 39.8873 14.928C39.8873 15.248 39.9593 15.48 40.1033 15.624C40.2633 15.752 40.5193 15.816 40.8713 15.816C41.3193 15.816 41.7033 15.624 42.0233 15.24C42.3593 14.856 42.6233 14.344 42.8153 13.704H43.8233C43.2313 15.432 42.4953 16.608 41.6153 17.232C40.7513 17.84 39.8793 18.144 38.9993 18.144C38.3113 18.144 37.7593 17.952 37.3433 17.568C36.9433 17.184 36.7033 16.616 36.6233 15.864C36.0793 16.744 35.5033 17.344 34.8953 17.664C34.3033 17.984 33.6953 18.144 33.0713 18.144ZM46.0045 18.144C44.9165 18.144 44.0845 17.88 43.5085 17.352C42.9325 16.808 42.6445 16.048 42.6445 15.072C42.6445 14.592 42.7005 14.136 42.8125 13.704L45.3805 1.68L48.9325 1.2L47.7805 6.6C48.2285 6.328 48.5965 6.152 48.8845 6.072C49.1725 5.976 49.4605 5.928 49.7485 5.928C51.6365 5.928 52.5805 7.296 52.5805 10.032C52.5805 11.136 52.3645 12.32 51.9325 13.584C51.5165 14.832 50.8125 15.904 49.8205 16.8C48.8445 17.696 47.5725 18.144 46.0045 18.144ZM47.3485 15.816C47.8445 15.816 48.3085 15.512 48.7405 14.904C49.1725 14.28 49.5165 13.512 49.7725 12.6C50.0285 11.672 50.1565 10.784 50.1565 9.936C50.1565 9.296 50.0445 8.752 49.8205 8.304C49.5965 7.856 49.2845 7.632 48.8845 7.632C48.6445 7.632 48.3725 7.672 48.0685 7.752C47.7805 7.816 47.5805 7.92 47.4685 8.064L46.1485 14.16C46.1005 14.352 46.0765 14.536 46.0765 14.712C46.0765 15.448 46.5005 15.816 47.3485 15.816ZM55.8526 18.144C55.0846 18.144 54.4606 17.904 53.9806 17.424C53.5166 16.944 53.2846 16.224 53.2846 15.264C53.2846 14.864 53.3486 14.344 53.4766 13.704L56.0446 1.68L59.5966 1.2L56.8366 14.16C56.7726 14.4 56.7406 14.656 56.7406 14.928C56.7406 15.248 56.8126 15.48 56.9566 15.624C57.1166 15.752 57.3726 15.816 57.7246 15.816C58.1886 15.816 58.6206 15.624 59.0206 15.24C59.4206 14.84 59.7086 14.328 59.8846 13.704H60.8926C60.3006 15.432 59.5406 16.608 58.6126 17.232C57.6846 17.84 56.7646 18.144 55.8526 18.144ZM67.051 -1.43051e-06H69.571L66.667 4.536H64.867L67.051 -1.43051e-06ZM63.283 18.144C62.115 18.144 61.203 17.84 60.547 17.232C59.891 16.608 59.563 15.64 59.563 14.328C59.563 13.224 59.779 12.008 60.211 10.68C60.643 9.352 61.347 8.208 62.323 7.248C63.299 6.272 64.539 5.784 66.043 5.784C67.803 5.784 68.683 6.552 68.683 8.088C68.683 8.984 68.427 9.808 67.915 10.56C67.403 11.312 66.723 11.92 65.875 12.384C65.027 12.832 64.123 13.088 63.163 13.152C63.131 13.504 63.115 13.744 63.115 13.872C63.115 15.2 63.611 15.864 64.603 15.864C65.051 15.864 65.531 15.744 66.043 15.504C66.555 15.264 67.019 14.96 67.435 14.592C67.003 16.96 65.619 18.144 63.283 18.144ZM63.331 12C63.939 11.984 64.507 11.784 65.035 11.4C65.579 11.016 66.011 10.528 66.331 9.936C66.667 9.328 66.835 8.696 66.835 8.04C66.835 7.384 66.635 7.056 66.235 7.056C65.675 7.056 65.115 7.568 64.555 8.592C64.011 9.6 63.603 10.736 63.331 12Z" fill="#FCF1F1"/>
</g>
<defs>
<filter id="filter0_d_2_2" x="0.216003" y="0" width="73.355" height="28.736" filterUnits="userSpaceOnUse" color-interpolation-filters="sRGB">
<feFlood flood-opacity="0" result="BackgroundImageFix"/>
<feColorMatrix in="SourceAlpha" type="matrix" values="0 0 0 0 0 0 0 0 0 0 0 0 0 0 0 0 0 0 127 0" result="hardAlpha"/>
<feOffset dy="4"/>
<feGaussianBlur stdDeviation="2"/>
<feComposite in2="hardAlpha" operator="out"/>
<feColorMatrix type="matrix" values="0 0 0 0 0 0 0 0 0 0 0 0 0 0 0 0 0 0 0.25 0"/>
<feBlend mode="normal" in2="BackgroundImageFix" result="effect1_dropShadow_2_2"/>
<feBlend mode="normal" in="SourceGraphic" in2="effect1_dropShadow_2_2" result="shape"/>
</filter>
</defs>
</svg>
